<?xml version="1.0" encoding="UTF-8" standalone="no"?><svg xmlns="http://www.w3.org/2000/svg" xmlns:xlink="http://www.w3.org/1999/xlink" contentStyleType="text/css" height="533px" preserveAspectRatio="none" style="width:684px;height:533px;background:#FFFFFF;" version="1.1" viewBox="0 0 684 533" width="684px" zoomAndPan="magnify"><defs/><g><line style="stroke:#181818;stroke-width:0.5;stroke-dasharray:5.0,5.0;" x1="37" x2="37" y1="81.2969" y2="453.1563"/><line style="stroke:#181818;stroke-width:0.5;stroke-dasharray:5.0,5.0;" x1="226" x2="226" y1="81.2969" y2="453.1563"/><line style="stroke:#181818;stroke-width:0.5;stroke-dasharray:5.0,5.0;" x1="378" x2="378" y1="81.2969" y2="453.1563"/><line style="stroke:#181818;stroke-width:0.5;stroke-dasharray:5.0,5.0;" x1="526" x2="526" y1="81.2969" y2="453.1563"/><line style="stroke:#181818;stroke-width:0.5;stroke-dasharray:5.0,5.0;" x1="644" x2="644" y1="81.2969" y2="453.1563"/><text fill="#000000" font-family="sans-serif" font-size="14" lengthAdjust="spacing" textLength="59" x="5" y="77.9951">Listener</text><ellipse cx="37.5" cy="13.5" fill="#00FFFF" rx="8" ry="8" style="stroke:#181818;stroke-width:0.5;"/><path d="M37.5,21.5 L37.5,48.5 M24.5,29.5 L50.5,29.5 M37.5,48.5 L24.5,63.5 M37.5,48.5 L50.5,63.5 " fill="none" style="stroke:#181818;stroke-width:0.5;"/><text fill="#000000" font-family="sans-serif" font-size="14" lengthAdjust="spacing" textLength="59" x="5" y="465.1514">Listener</text><ellipse cx="37.5" cy="476.9531" fill="#00FFFF" rx="8" ry="8" style="stroke:#181818;stroke-width:0.5;"/><path d="M37.5,484.9531 L37.5,511.9531 M24.5,492.9531 L50.5,492.9531 M37.5,511.9531 L24.5,526.9531 M37.5,511.9531 L50.5,526.9531 " fill="none" style="stroke:#181818;stroke-width:0.5;"/><rect fill="#99FF99" height="46.5938" rx="2.5" ry="2.5" style="stroke:#181818;stroke-width:0.5;" width="135" x="159" y="33.7031"/><text fill="#000000" font-family="sans-serif" font-size="14" lengthAdjust="spacing" textLength="105" x="174" y="53.6982">Podcasting 2.0</text><text fill="#000000" font-family="sans-serif" font-size="14" lengthAdjust="spacing" textLength="117" x="166" y="69.9951">mobile/web app</text><rect fill="#99FF99" height="46.5938" rx="2.5" ry="2.5" style="stroke:#181818;stroke-width:0.5;" width="135" x="159" y="452.1563"/><text fill="#000000" font-family="sans-serif" font-size="14" lengthAdjust="spacing" textLength="105" x="174" y="472.1514">Podcasting 2.0</text><text fill="#000000" font-family="sans-serif" font-size="14" lengthAdjust="spacing" textLength="117" x="166" y="488.4482">mobile/web app</text><rect fill="#FF0000" height="46.5938" rx="2.5" ry="2.5" style="stroke:#181818;stroke-width:0.5;" width="139" x="309" y="33.7031"/><text fill="#000000" font-family="sans-serif" font-size="14" lengthAdjust="spacing" textLength="125" x="316" y="53.6982">PodcastIndex.org</text><text fill="#000000" font-family="sans-serif" font-size="14" lengthAdjust="spacing" textLength="23" x="367" y="69.9951">API</text><rect fill="#FF0000" height="46.5938" rx="2.5" ry="2.5" style="stroke:#181818;stroke-width:0.5;" width="139" x="309" y="452.1563"/><text fill="#000000" font-family="sans-serif" font-size="14" lengthAdjust="spacing" textLength="125" x="316" y="472.1514">PodcastIndex.org</text><text fill="#000000" font-family="sans-serif" font-size="14" lengthAdjust="spacing" textLength="23" x="367" y="488.4482">API</text><rect fill="#FFA500" height="46.5938" rx="2.5" ry="2.5" style="stroke:#181818;stroke-width:0.5;" width="137" x="458" y="33.7031"/><text fill="#000000" font-family="sans-serif" font-size="14" lengthAdjust="spacing" textLength="123" x="465" y="53.6982">Bitcoin Lightning</text><text fill="#000000" font-family="sans-serif" font-size="14" lengthAdjust="spacing" textLength="43" x="505" y="69.9951">wallet</text><rect fill="#FFA500" height="46.5938" rx="2.5" ry="2.5" style="stroke:#181818;stroke-width:0.5;" width="137" x="458" y="452.1563"/><text fill="#000000" font-family="sans-serif" font-size="14" lengthAdjust="spacing" textLength="123" x="465" y="472.1514">Bitcoin Lightning</text><text fill="#000000" font-family="sans-serif" font-size="14" lengthAdjust="spacing" textLength="43" x="505" y="488.4482">wallet</text><text fill="#000000" font-family="sans-serif" font-size="14" lengthAdjust="spacing" textLength="72" x="605" y="77.9951">Podcaster</text><ellipse cx="644" cy="13.5" fill="#EE82EE" rx="8" ry="8" style="stroke:#181818;stroke-width:0.5;"/><path d="M644,21.5 L644,48.5 M631,29.5 L657,29.5 M644,48.5 L631,63.5 M644,48.5 L657,63.5 " fill="none" style="stroke:#181818;stroke-width:0.5;"/><text fill="#000000" font-family="sans-serif" font-size="14" lengthAdjust="spacing" textLength="72" x="605" y="465.1514">Podcaster</text><ellipse cx="644" cy="476.9531" fill="#EE82EE" rx="8" ry="8" style="stroke:#181818;stroke-width:0.5;"/><path d="M644,484.9531 L644,511.9531 M631,492.9531 L657,492.9531 M644,511.9531 L631,526.9531 M644,511.9531 L657,526.9531 " fill="none" style="stroke:#181818;stroke-width:0.5;"/><polygon fill="#181818" points="389.5,108.4297,379.5,112.4297,389.5,116.4297,385.5,112.4297" style="stroke:#181818;stroke-width:1.0;"/><line style="stroke:#181818;stroke-width:1.0;" x1="383.5" x2="643" y1="112.4297" y2="112.4297"/><text fill="#000000" font-family="sans-serif" font-size="13" lengthAdjust="spacing" textLength="137" x="395.5" y="107.3638">register your podcast</text><polygon fill="#181818" points="214.5,137.5625,224.5,141.5625,214.5,145.5625,218.5,141.5625" style="stroke:#181818;stroke-width:1.0;"/><line style="stroke:#181818;stroke-width:1.0;" x1="37.5" x2="220.5" y1="141.5625" y2="141.5625"/><text fill="#000000" font-family="sans-serif" font-size="13" lengthAdjust="spacing" textLength="119" x="44.5" y="136.4966">Download &amp; Install</text><polygon fill="#181818" points="366.5,166.6953,376.5,170.6953,366.5,174.6953,370.5,170.6953" style="stroke:#181818;stroke-width:1.0;"/><line style="stroke:#181818;stroke-width:1.0;" x1="226.5" x2="372.5" y1="170.6953" y2="170.6953"/><text fill="#000000" font-family="sans-serif" font-size="13" lengthAdjust="spacing" textLength="128" x="233.5" y="165.6294">call to find podcasts</text><polygon fill="#181818" points="214.5,195.8281,224.5,199.8281,214.5,203.8281,218.5,199.8281" style="stroke:#181818;stroke-width:1.0;"/><line style="stroke:#181818;stroke-width:1.0;" x1="37.5" x2="220.5" y1="199.8281" y2="199.8281"/><text fill="#000000" font-family="sans-serif" font-size="13" lengthAdjust="spacing" textLength="146" x="44.5" y="194.7622">Subscribe to a podcast</text><polygon fill="#181818" points="514.5,224.9609,524.5,228.9609,514.5,232.9609,518.5,228.9609" style="stroke:#181818;stroke-width:1.0;"/><line style="stroke:#181818;stroke-width:1.0;" x1="37.5" x2="520.5" y1="228.9609" y2="228.9609"/><text fill="#000000" font-family="sans-serif" font-size="13" lengthAdjust="spacing" textLength="288" x="44.5" y="223.895">buy Bitcoin and convert it to Bitcoin Lightning</text><polygon fill="#181818" points="214.5,284.3594,224.5,288.3594,214.5,292.3594,218.5,288.3594" style="stroke:#181818;stroke-width:1.0;"/><line style="stroke:#181818;stroke-width:1.0;" x1="37.5" x2="220.5" y1="288.3594" y2="288.3594"/><text fill="#000000" font-family="sans-serif" font-size="13" lengthAdjust="spacing" textLength="115" x="44.5" y="253.0278">request invoice of</text><text fill="#000000" font-family="sans-serif" font-size="13" lengthAdjust="spacing" textLength="104" x="44.5" y="268.1606">Bitcoin Lightning</text><text fill="#000000" font-family="sans-serif" font-size="13" lengthAdjust="spacing" textLength="165" x="44.5" y="283.2935">to charge podcatcher app</text><polygon fill="#181818" points="514.5,313.4922,524.5,317.4922,514.5,321.4922,518.5,317.4922" style="stroke:#181818;stroke-width:1.0;"/><line style="stroke:#181818;stroke-width:1.0;" x1="37.5" x2="520.5" y1="317.4922" y2="317.4922"/><text fill="#000000" font-family="sans-serif" font-size="13" lengthAdjust="spacing" textLength="230" x="44.5" y="312.4263">pay the invoice by pasting it as text</text><polygon fill="#181818" points="237.5,342.625,227.5,346.625,237.5,350.625,233.5,346.625" style="stroke:#181818;stroke-width:1.0;"/><line style="stroke:#181818;stroke-width:1.0;" x1="231.5" x2="525.5" y1="346.625" y2="346.625"/><text fill="#000000" font-family="sans-serif" font-size="13" lengthAdjust="spacing" textLength="159" x="243.5" y="341.5591">transfer Bitcoin Lightning</text><polygon fill="#181818" points="214.5,402.0234,224.5,406.0234,214.5,410.0234,218.5,406.0234" style="stroke:#181818;stroke-width:1.0;"/><line style="stroke:#181818;stroke-width:1.0;" x1="37.5" x2="220.5" y1="406.0234" y2="406.0234"/><text fill="#000000" font-family="sans-serif" font-size="13" lengthAdjust="spacing" textLength="103" x="44.5" y="370.6919">stream satoshis</text><text fill="#000000" font-family="sans-serif" font-size="13" lengthAdjust="spacing" textLength="130" x="44.5" y="385.8247">or send boostogram</text><text fill="#000000" font-family="sans-serif" font-size="13" lengthAdjust="spacing" textLength="53" x="44.5" y="400.9575">or boost</text><polygon fill="#181818" points="632,431.1563,642,435.1563,632,439.1563,636,435.1563" style="stroke:#181818;stroke-width:1.0;"/><line style="stroke:#181818;stroke-width:1.0;" x1="226.5" x2="638" y1="435.1563" y2="435.1563"/><text fill="#000000" font-family="sans-serif" font-size="13" lengthAdjust="spacing" textLength="325" x="233.5" y="430.0903">transfer Bitcoin Lightning + boostogram messages</text><!--MD5=[448e4fe8a94037274d8c125d48c50589]
@startuml
actor Listener #cyan
participant "Podcasting 2.0\nmobile/web app " as App #99FF99
participant "PodcastIndex.org\nAPI" as Ind #red
participant "Bitcoin Lightning\nwallet" as Btc #orange
actor Podcaster #violet
Podcaster->Ind: register your podcast
Listener->App: Download & Install
App->Ind: call to find podcasts
Listener->App: Subscribe to a podcast
Listener->Btc: buy Bitcoin and convert it to Bitcoin Lightning
Listener->App: request invoice of\nBitcoin Lightning\nto charge podcatcher app
Listener->Btc: pay the invoice by pasting it as text
Btc->App: transfer Bitcoin Lightning 
Listener->App: stream satoshis\nor send boostogram\nor boost
App->Podcaster: transfer Bitcoin Lightning + boostogram messages
@enduml

PlantUML version 1.2022.7beta11(Unknown compile time)
(GPL source distribution)
Java Runtime: Java(TM) SE Runtime Environment
JVM: Java HotSpot(TM) 64-Bit Server VM
Default Encoding: UTF-8
Language: en
Country: US
--></g></svg>